/* XPM */
static char * wall_5_xpm[] = {
"64 64 81 1",
" 	c #651ECE",
".	c #661ECE",
"+	c #681FD3",
"@	c #691FD5",
"#	c #661ECF",
"$	c #691FD4",
"%	c #671FD2",
"&	c #681FD2",
"*	c #671FD0",
"=	c #681FD4",
"-	c #671FD1",
";	c #DDD8F2",
">	c #DFD9F2",
",	c #DFDBF3",
"'	c #E0DCF3",
")	c #E3DFF4",
"!	c #E5E2F4",
"~	c #E6E2F5",
"{	c #E2DEF4",
"]	c #E2DCF3",
"^	c #DFDBF2",
"/	c #DFD8F2",
"(	c #E0DBF2",
"_	c #DFDAF2",
":	c #DED8F2",
"<	c #DDD7F2",
"[	c #DCD7F1",
"}	c #DFDCF3",
"|	c #E5E1F4",
"1	c #E2DFF4",
"2	c #E2DEF3",
"3	c #E2DDF3",
"4	c #E3DEF3",
"5	c #E4E0F4",
"6	c #E4DFF4",
"7	c #E5E0F4",
"8	c #E0DCF2",
"9	c #E4DEF4",
"0	c #E5DFF4",
"a	c #E5E2F5",
"b	c #E5E1F5",
"c	c #E7E4F5",
"d	c #E8E4F6",
"e	c #E9E7F7",
"f	c #E8E5F6",
"g	c #E7E4F6",
"h	c #E7E3F5",
"i	c #EAE7F7",
"j	c #E9E5F6",
"k	c #E7E2F5",
"l	c #E7E5F5",
"m	c #E9E6F6",
"n	c #E6E1F4",
"o	c #E9E7F6",
"p	c #EAE7F6",
"q	c #E7E5F6",
"r	c #EBE7F7",
"s	c #ECE9F8",
"t	c #EDE9F8",
"u	c #EDEAF9",
"v	c #EDEAF8",
"w	c #ECE9F7",
"x	c #EBE9F7",
"y	c #EBE9F8",
"z	c #EBE8F7",
"A	c #E8E6F6",
"B	c #EDEBF9",
"C	c #EEEBF9",
"D	c #EDEBF8",
"E	c #EBE8F8",
"F	c #E8E5F5",
"G	c #E5E0F5",
"H	c #E9E6F7",
"I	c #EAE8F7",
"J	c #E1DCF3",
"K	c #E6E3F5",
"L	c #E4E0F5",
"M	c #E6E3F6",
"N	c #E9E5F7",
"O	c #DFD9F3",
"P	c #E2DFF3",
"                                                                ",
"                                      .+@@@@@@@@@@@@@@@@@@@@@@@@",
".                                     #$@@@@@@@@@@@@@@@@@@@@@@@@",
"%.                                   #+@@@@@@@@@@@@@@@@@@@@@@@@@",
"$%.                                 #+@@@@@@@@@@@@@@@@@@@@@@@@@@",
"@$&#.                            ..*+@@@@@@@@@@@@@@@@@@@@@@@@@@@",
"@@@=&-##..#......#..######******-%+$@@@@@@@@@@@@@@@@@@@@@@@@@@@@",
"@@@@@@@@@@@@@@@@@@@@@@@@@@@@@@@@@@@@@@@@@@@@@@@@@@@@@@@@@@@@@@@@",
"@@@@@@@@;>,'''))))!~~~~~~~~~~~~~~~~~~!{]'^>;/(____>:;<<[@@@@@@@@",
"@@@@@@@@}''''])))!~~~~~~~~~~~~~~~~~~~|))))))))))1223333]@@@@@@@@",
"@@@@@@@@'''''455!~~~~~~~~~~~~~~~~~~~!5))))))6~7)))))))))@@@@@@@@",
"@@@@@@@@8'''37!~~~~~~~~~~~~~~~~~~~~~|))))))))7~7))))))))@@@@@@@@",
"@@@@@@@@:>_'1~~~~~~~~~~~~~~~~~~~~~~~5)))))))))7~7)))))))@@@@@@@@",
"@@@@@@@@]390!~~~~~~~~~~~~~~~~~~~~~~!)))))))))))7a77775))@@@@@@@@",
"@@@@@@@@bacdefghhh~~~~~~~~~~~~~~~~~|)5|||5))))))hh~~~~|6@@@@@@@@",
"@@@@@@@@~hfeiiijfffddghh~~~~~~~~~~~7!~~~~~|)))7~kh~~~~~|@@@@@@@@",
"@@@@@@@@~ljiiiiieffffffffdghh~~~~~!~~~~~~~~|6!~~~k~~~~~~@@@@@@@@",
"@@@@@@@@~lmiiiiiiijfffffffffffddghhh~~~~khhlg~~~~nhhh~~~@@@@@@@@",
"@@@@@@@@~leiiiiiiiimfffffffffmoopiooooiiemmoeqgjjlffqqh~@@@@@@@@",
"@@@@@@@@frssstuuvwxxxiiiiiiiiiiiiiiiiiiiiiyssyxzmAffffqh@@@@@@@@",
"@@@@@@@@ezssBCCCCCCvssiiiiiiiiiiiiiiiiiiissssBsiiiiimmfq@@@@@@@@",
"@@@@@@@@fryCCCCCCCCCvsszriiiiiieiiiiiiiissssCBiiiiiiiiii@@@@@@@@",
"@@@@@@@@fostvDCCCCCCCvsssssxzreiiiiiiiisssvCDyiiiiiimjff@@@@@@@@",
"@@@@@@@@jyssssssvvvDCBssssssssyssyzzrzvvuDvtsyiiiiiiiimj@@@@@@@@",
"@@@@@@@@rssssssssssssswzzzsssyssssssxvtssssssyiiiiiiiiii@@@@@@@@",
"@@@@@@@@zsssssssssssssziiiizxxxxzziissssssssssziiiiiiiii@@@@@@@@",
"@@@@@@@@zsssssssssssssziiiiieiiieeeyyyyyyyyyyyEeeeemmfff@@@@@@@@",
"@@@@@@@@ezssssssssssssziiiieiiiiiissssssssssssyiiiiiefff@@@@@@@@",
"@@@@@@@@kloxssssssssssziiiieiiiiissssssssssssssiiiiiioll@@@@@@@@",
"@@@@@@@@7~~Fpyyssssssyiiiimiiiizsssssssssssssssiiiiiofq~@@@@@@@@",
"@@@@@@@@26G~Foiryssssyiiieeiiixssssssssssssssssiioomfffg@@@@@@@@",
"@@@@@@@@4kgqqfmirrzysyiiifiiiyssssssssssssssssxmmffffffq@@@@@@@@",
"@@@@@@@@~ffffffmmmooiimmHHiiyssssssssssssssssxoffffffffq@@@@@@@@",
"@@@@@@@@miiiiieooooorimojoeyssssssssssssssssxioffffffffq@@@@@@@@",
"@@@@@@@@miiiiiiiiiiizpiiiiysssssssssssssssxxiimffffffffq@@@@@@@@",
"@@@@@@@@miiiiiiiiiiiiooiiyssssssssxxxxxxxzziiimffffffffq@@@@@@@@",
"@@@@@@@@miiiiiiiiiiiefmoysssssssxziiiiiiiiiiiofffffffffg@@@@@@@@",
"@@@@@@@@miiiiiiiiiiieffrxsssssxzIiiiiiiiiiiiioffffffffg~@@@@@@@@",
"@@@@@@@@miiiiiiiiiiimfiizxxxxziiiiiiiiiiiiiiiofffffffg~~@@@@@@@@",
"@@@@@@@@jiiiiiiiiiiifiiiiiiiiiiiiiiiiiiiiiiiimffffqgh~~~@@@@@@@@",
"@@@@@@@@fiiiiiiiiiieiiiiiiiiioiiiiiiiiiiiiiiimfffqqqqqqq@@@@@@@@",
"@@@@@@@@fiiiiiiiiiiiiiiiiiiiiiiiiiiiiiiiiiiiofffffffffff@@@@@@@@",
"@@@@@@@@fiiiiiiiiiiiiiiiiiiiiiiiiiiiiiiiiiiiofffffffffff@@@@@@@@",
"@@@@@@@@fiiiiiiiiiiiiiiiiiiiiiiiiiiiiiiiiiiimfffffffffff@@@@@@@@",
"@@@@@@@@jiiiiiiiiiiiiiiiiiiiiiiiiiiiiiiiiiioffffffffffff@@@@@@@@",
"@@@@@@@@!hhfffffmmoeeiiiiiiiiiiiiiiiiiiiiiimffffffffffff@@@@@@@@",
"@@@@@@@@0~~~kkcfffffeiiiiiiiiiiiiiiiiiiiiioAffffffffffff@@@@@@@@",
"@@@@@@@@7~~~kkFfffffeiiiiiiiiiiiiiiiiiiiiiofffffffffffff@@@@@@@@",
"@@@@@@@@!~~kcfffffffmiiiiiiiiiiiiiiiiiiiiimfffffffffffff@@@@@@@@",
"@@@@@@@@7~kffffffffffiiiiiiiiiiiiiiiiiiiiofffffffffffffd@@@@@@@@",
"@@@@@@@@7kfffffffffffmiiiiiiiiiiiiiiiiiiiofffffffffffffh@@@@@@@@",
"@@@@@@@@J7Khgdddffffffmiiiiiiiiiiiiiiiiiimffffffffffffda@@@@@@@@",
"@@@@@@@@,))))077bhhgddfmiiiiiiiiiieeeeeeofffqqqqqqqgcK5)@@@@@@@@",
"@@@@@@@@,))))))1111))6L~MNHemmmmffffffffc~~~~~~~~~~~~5))@@@@@@@@",
"@@@@@@@@O)1'''''''''''''3)0nMdfffffffqchn777~~~~~~~a5))P@@@@@@@@",
"@@@@@@@@@@@@@@@@@@@@@@@@@@@@@@@@@@@@@@@@@@@@@@@@@@@@@@@@@@@@@@@@",
"@@@@@@@@@@@@@@@@@@@@@@@@@@@@@@@@@@@@@@@@@@@@@@@@@@@@@@@@@@@@@@@@",
"@@@@@@@@@@@@@@@@@@@@@@@@@@@@@@@@@@@@@@@@@@@@@@@@@@@@@@@@@@@@@@@@",
"@@@@@@@@@@@@@@@@@@@@@@@@@@@@@@@@@@@@@@@@@@@@@@@@@@@@@@@@@@@@@@@@",
"@@@@@@@@@@@@@@@@@@@@@@@@@@@@@@@@@@@@@@@@@@@@@@@@@@@@@@@@@@@@@@@@",
"@@@@@@@@@@@@@@@@@@@@@@@@@@@@@@@@@@@@@@@@@@@@@@@@@@@@@@@@@@@@@@@@",
"@@@@@@@@@@@@@@@@@@@@@@@@@@@@@@@@@@@@@@@@@@@@@@@@@@@@@@@@@@@@@@@@",
"@@@@@@@@@@@@@@@@@@@@@@@@@@@@@@@@@@@@@@@@@@@@@@@@@@@@@@@@@@@@@@@@",
"@@@@@@@@@@@@@@@@@@@@@@@@@@@@@@@@@@@@@@@@@@@@@@@@@@@@@@@@@@@@@@@@"};
