/* XPM */
static char *_98350bd40594e12b9ba752d5c1f9af3[] = {
/* columns rows colors chars-per-pixel */
"5 5 2 1 ",
"7 c gray66",
"0 c #989898",
/* pixels */
"77777"
"77777"
"77077"
"77777"
"77777"
};
