/* XPM */
static char * wall_6_xpm[] = {
"64 64 3 1",
" 	c #0000FF",
".	c #FFFFFF",
"+	c #FF002C",
"         ........         .........          ........         ++",
"         ........         .........          ........         ++",
"         ........         .........          ........         ++",
"         ........         .........          ........         ++",
"         ........         .........          ........         ++",
"         ........         .........          ........         ++",
"         ........         .........          ........         ++",
"         ........         .........          ........         ++",
"         ........         .........          ........         ++",
"         ........         .........          ........         ++",
"         ........         .........          ........         ++",
"         ........         .........          ........         ++",
"         ........         .........          ........         ++",
"         ........         .........          ........         ++",
"         ........         .........          ........         ++",
"         ........         .........          ........         ++",
"         ........         .........          ........         ++",
"         ........         .........          ........         ++",
"         ........         .........          ........         ++",
"         ........         .........          ........         ++",
"         ........         .........          ........         ++",
"         ........         .........          ........         ++",
"         ........         .........          ........         ++",
"         ........         .........          ........         ++",
"         ........         .........          ........         ++",
"         ........         ......++.          ........         ++",
"         ........         ......++.          ........         ++",
"         ........         ......++.          ........         ++",
"         ........         ......++.          ........         ++",
"         ........         ......++.          ........         ++",
"         ........         ++++++++++++++     ........         ++",
"         ........         ++++++++++++++     ........         ++",
"         ........         ......++.          ........         ++",
"         ........         ......++.          ........         ++",
"         ........         ......++.          ........         ++",
"         ........         ......++.          ........         ++",
"         ........         ......++.          ........         ++",
"         ........         ......++.          ........         ++",
"         ........         .........          ........         ++",
"         ........         .........          ........         ++",
"         ........         .........          ........         ++",
"         ........         .........          ........         ++",
"         ........         .........          ........         ++",
"         ........         .........          ........         ++",
"         ........         .........          ........         ++",
"         ........         .........          ........         ++",
"         ........         .........          ........         ++",
"         ........         .........          ........         ++",
"         ........         .........          ........         ++",
"         ........         .........          ........         ++",
"         ........         .........          ........         ++",
"         ........         .........          ........         ++",
"         ........         .........          ........         ++",
"         ........         .........          ........         ++",
"         ........         .........          ........         ++",
"         ........         .........          ........         ++",
"         ........         .........          ........         ++",
"         ........         .........          ........         ++",
"         ........         .........          ........         ++",
"         ........         .........          ........         ++",
"         ........         .........          ........         ++",
"         ........         .........          ........         ++",
"         ........         .........          ........         ++",
"         ........         .........          ........         ++"};
