/* XPM */
static char * wall_7_xpm[] = {
"64 64 3 1",
" 	c #0000FF",
".	c #FFFFFF",
"+	c #000000",
"                                                                ",
" .............................................................. ",
" .............................................................. ",
" .............................................................. ",
" .............................................................. ",
" .............................................................. ",
" .............................................................. ",
" .............................................................. ",
" ........++++++++++...........................++++++++++....... ",
" ........++++++++++...........................++++++++++....... ",
" ........++++++++++...........................++++++++++....... ",
" ........++++++++++...........................++++++++++....... ",
" ........++++++++++...........................++++++++++....... ",
" ........++++++++++...........................++++++++++....... ",
" ........++++++++++...........................++++++++++....... ",
" ........++++++++++...........................++++++++++....... ",
" ........++++++++++...........................++++++++++....... ",
" ........++++++++++...........................++++++++++....... ",
" .............................................................. ",
" .............................................................. ",
" .............................................................. ",
" .............................................................. ",
" .............................................................. ",
" .............................................................. ",
" .............................................................. ",
" ..............................   ............................. ",
" ..............................   ............................. ",
" ..............................   ............................. ",
" ..............................   ............................. ",
" ..........................           ......................... ",
" ............+.............     .     ............+............ ",
" ..........................           ......................... ",
" ..............................   ............................. ",
" ..............................   ............................. ",
" ..............................   ............................. ",
" ..............................   ............................. ",
" .............................................................. ",
" .............................................................. ",
" .............................................................. ",
" .............................................................. ",
" .............................................................. ",
" .............................................................. ",
" .............................................................. ",
" .............................................................. ",
" .............................................................. ",
" .............................................................. ",
" .............................................................. ",
" .............................................................. ",
" .............................................................. ",
" ...........................++++++++++......................... ",
" ...........................++++++++++......................... ",
" ...........................++++++++++......................... ",
" ...........................++++++++++......................... ",
" ...........................++++++++++......................... ",
" ...........................++++++++++......................... ",
" ...........................++++++++++......................... ",
" ...........................++++++++++......................... ",
" ...........................++++++++++......................... ",
" ...........................++++++++++......................... ",
" .............................................................. ",
" .............................................................. ",
" .............................................................. ",
" .............................................................. ",
"                                                                "};
